# xmcd
#
# Track frame offsets:
#	150
#	20277
#	40605
#	58677
#	77710
#	92375
#	112402
#	132977
#	149952
#	170105
#	189387
#	209972
#
# Disc length: 3117 seconds
#
# Revision: 4
# Processed by: cddbd v1.5.2PL0 Copyright (c) Steve Scherf et al.
# Submitted via: audiograbber 1.83.01
#
DISCID=b60c2b0c
DTITLE=Az Yet - Az Yet
DYEAR=1996
DGENRE=R&B
TTITLE0=Last Night
TTITLE1=Saved For Someone Else
TTITLE2=Care For Me
TTITLE3=Every Little Bit Of My Heart
TTITLE4=Hard To Say I'm Sorry
TTITLE5=That's All I Want
TTITLE6=Secrets
TTITLE7=Through My Heart
TTITLE8=I Don't Want To Be Lonely
TTITLE9=Sadder Than Blue
TTITLE10=Inseparable Lovers
TTITLE11=Time To End The Story
EXTD=
EXTT0=
EXTT1=
EXTT2=
EXTT3=
EXTT4=
EXTT5=
EXTT6=
EXTT7=(The Arrow)
EXTT8=
EXTT9=
EXTT10=
EXTT11=
PLAYORDER=
